# xmcd
#
# Track frame offsets: 
#        150
#        8072
#        17125
#        28245
#        36902
#        43430
#        56385
#        68545
#        74155
#        85155
#        90112
#        98932
#        106247
#        114665
#        123085
#        133937
#        141967
#        156245
#
# Disc length: 2265 seconds
#
# Revision: 5
# Processed by: cddbd v1.5.2PL0 Copyright (c) Steve Scherf et al.
# Submitted via: ExactAudioCopy v0.99pb3
#
DISCID=f708d712
DTITLE=The Jon Spencer Blues Explosion - Crypt-Style
DYEAR=1993
DGENRE=
TTITLE0=Lovin' up a Storm
TTITLE1=Support a Man
TTITLE2=White Tail
TTITLE3=Maynard Ave.
TTITLE4='78 Style
TTITLE5=Chicken Walk
TTITLE6=Mo' Chicken - Let's Get Funky
TTITLE7=Waterman
TTITLE8=Like a Hawk
TTITLE9=Big Headed Baby
TTITLE10=Write a Song
TTITLE11=Eye to Eye
TTITLE12=The Feeling of Love
TTITLE13=Kill a Man
TTITLE14=Rachel
TTITLE15=History of Sex
TTITLE16=Comeback
TTITLE17=The Vacuum of Loneliness
EXTD=
EXTT0=
EXTT1=
EXTT2=
EXTT3=
EXTT4=
EXTT5=
EXTT6=
EXTT7=
EXTT8=
EXTT9=
EXTT10=
EXTT11=
EXTT12=
EXTT13=
EXTT14=
EXTT15=
EXTT16=
EXTT17=
PLAYORDER=
